<svg width="24" height="24" viewBox="0 0 24 24" fill="none" xmlns="http://www.w3.org/2000/svg">
<path fill-rule="evenodd" clip-rule="evenodd" d="M3.64014 12.9535H6.31382V9.87498H7.12645V12.9535H9.80014V13.7959H7.12645V16.875H6.31382V13.7959H3.64014V12.9535ZM8.97106 2C8.58842 2 8.27704 2.31892 8.27704 2.71112C8.27704 3.10318 8.58842 3.4221 8.97106 3.4221H21.6121V21.5779H6.82779V19.1666C9.9695 19.1248 12.504 16.5039 12.504 13.2749C12.504 10.046 9.9695 7.42493 6.82779 7.38321V5.94835H19.3811V18.4999C19.3811 18.8919 19.6925 19.2108 20.0751 19.2108C20.4578 19.2108 20.769 18.8919 20.769 18.4999V5.23723C20.769 4.84517 20.4578 4.52611 20.0751 4.52611H6.13377C5.75114 4.52611 5.43975 4.84517 5.43975 5.23723V7.53719C2.89577 8.14566 1 10.4828 1 13.2749C1 16.0671 2.89577 18.4039 5.43975 19.0127V22.289C5.43975 22.6811 5.75114 23 6.13377 23H22.306C22.6886 23 23 22.6811 23 22.289V2.71112C23 2.31892 22.6886 2 22.306 2H8.97106Z" fill="white"/>
</svg>
