<?xml version="1.0" encoding="UTF-8"?>
<svg width="24px" height="24px" viewBox="0 0 24 24" version="1.1" xmlns="http://www.w3.org/2000/svg" xmlns:xlink="http://www.w3.org/1999/xlink">
    <title>Icon/24x24px/arrowRight</title>
    <g id="Asset" stroke="none" stroke-width="1" fill="none" fill-rule="evenodd">
        <g id="Icon/24x24px/Arrow/Up">
            <rect id="Rectangle" x="2.27373675e-13" y="0" width="24" height="24"></rect>
            <path d="M15.2000773,12.7323387 L10.2235673,17.7088487 C9.83304302,18.099373 9.19987804,18.099373 8.80935375,17.7088487 C8.41288223,17.3123772 8.41288223,16.6792122 8.80340652,16.2886879 L13.0915133,11.9992581 L8.80340652,7.7113121 C8.41288223,7.32078781 8.41288223,6.68762283 8.80340652,6.29709854 C9.19987804,5.90062703 9.83304302,5.90062703 10.2235673,6.29115132 L15.2000773,11.2676613 C15.3803193,11.4479033 15.4773726,11.679832 15.4912374,11.9157367 L15.4912374,12.0842633 C15.4773726,12.320168 15.3803193,12.5520967 15.2000773,12.7323387 Z" id="Combined-Shape" fill="#333333" transform="translate(12.001742, 12.000000) rotate(270.000000) translate(-12.001742, -12.000000) "></path>
        </g>
    </g>
</svg>