<?xml version="1.0" encoding="UTF-8"?>
<svg width="24px" height="24px" viewBox="0 0 24 24" version="1.1" xmlns="http://www.w3.org/2000/svg" xmlns:xlink="http://www.w3.org/1999/xlink">
    <title>Icon/24x24px/arrowRight</title>
    <g id="Asset" stroke="none" stroke-width="1" fill="none" fill-rule="evenodd">
        <g id="Icon/24x24px/Arrow/Down">
            <rect id="Rectangle" x="2.27373675e-13" y="0" width="24" height="24"></rect>
            <path d="M15.2000773,12.7340806 L10.2235673,17.7105906 C9.83304302,18.1011149 9.19987804,18.1011149 8.80935375,17.7105906 C8.41288223,17.3141191 8.41288223,16.6809541 8.80340652,16.2904298 L13.0915133,12.001 L8.80340652,7.713054 C8.41288223,7.32252971 8.41288223,6.68936473 8.80340652,6.29884044 C9.19987804,5.90236893 9.83304302,5.90236893 10.2235673,6.29289322 L15.2000773,11.2694032 C15.3803193,11.4496452 15.4773726,11.6815739 15.4912374,11.9174786 L15.4912374,12.0860052 C15.4773726,12.3219099 15.3803193,12.5538386 15.2000773,12.7340806 Z" id="Combined-Shape" fill="#333333" transform="translate(12.001742, 12.001742) rotate(90.000000) translate(-12.001742, -12.001742) "></path>
        </g>
    </g>
</svg>