<?xml version="1.0" encoding="UTF-8"?>
<svg width="24px" height="24px" viewBox="0 0 24 24" version="1.1" xmlns="http://www.w3.org/2000/svg" xmlns:xlink="http://www.w3.org/1999/xlink">
    <title>Icon/24x24px/arrowRight</title>
    <g id="Asset" stroke="none" stroke-width="1" fill="none" fill-rule="evenodd">
        <g id="Icon/24x24px/Arrow/Left">
            <rect id="Rectangle" x="2.27373675e-13" y="0" width="24" height="24"></rect>
            <path d="M15.199564,12.7323387 L10.223054,17.7088487 C9.83252971,18.099373 9.19936473,18.099373 8.80884044,17.7088487 C8.41236893,17.3123772 8.41236893,16.6792122 8.80289322,16.2886879 L13.091,11.9992581 L8.80289322,7.7113121 C8.41236893,7.32078781 8.41236893,6.68762283 8.80289322,6.29709854 C9.19936473,5.90062703 9.83252971,5.90062703 10.223054,6.29115132 L15.199564,11.2676613 C15.379806,11.4479033 15.4768593,11.679832 15.4907241,11.9157367 L15.4907241,12.0842633 C15.4768593,12.320168 15.379806,12.5520967 15.199564,12.7323387 Z" id="Combined-Shape" fill="#333333" transform="translate(12.001229, 12.000000) scale(-1, 1) translate(-12.001229, -12.000000) "></path>
        </g>
    </g>
</svg>