<?xml version="1.0" encoding="UTF-8"?>
<svg width="24px" height="24px" viewBox="0 0 24 24" version="1.1" xmlns="http://www.w3.org/2000/svg" xmlns:xlink="http://www.w3.org/1999/xlink">
    <title>Football/Icon/24x24px/Date</title>
    <defs>
        <path d="M3.12371334,1.49156233 L3.14256176,3.81246598 C3.14256176,4.74446528 4.13237077,5.5 5.04370176,5.5 C5.95503276,5.5 6.89041763,4.74446528 6.89041763,3.81246598 L6.87156921,1.49156233 L13.1234296,1.49156233 L13.1234296,3.66902559 C13.1234296,4.74847679 14.0875269,5.5 14.9988579,5.5 C15.9101889,5.5 16.8692851,4.74847679 16.8692851,3.66902559 L16.8692851,1.49156233 L17.8708249,1.49156233 C19.0467358,1.49156233 20,2.46644584 20,3.66902559 L20,17.8225367 C20,19.0251165 19.0467358,20 17.8708249,20 L2.12917515,20 C0.953264183,20 0,19.0251165 0,17.8225367 L0,3.66902559 C0,2.46644584 0.953264183,1.49156233 2.12917515,1.49156233 L3.12371334,1.49156233 Z M18.2743679,6.49798918 L1.73952177,6.49798918 L1.73952177,17.9604891 C1.73952177,18.1348631 1.87774508,18.2762213 2.04825217,18.2762213 L17.9656375,18.2762213 C18.1361446,18.2762213 18.2743679,18.1348631 18.2743679,17.9604891 L18.2743679,6.49798918 Z M4.99803132,0 C5.41547971,0 5.87323118,0.351273415 5.87323118,0.784591133 L5.87323118,3.70194408 C5.87323118,4.1352618 5.41547971,4.5 4.99803132,4.5 C4.58058293,4.5 4.12283146,4.1352618 4.12283146,3.70194408 L4.12283146,0.784591133 C4.12283146,0.351273415 4.58058293,0 4.99803132,0 Z M15.0003155,0 C15.4177639,0 15.8755153,0.351273415 15.8755153,0.784591133 L15.8755153,3.70194408 C15.8755153,4.1352618 15.4177639,4.5 15.0003155,4.5 C14.5828671,4.5 14.1251156,4.1352618 14.1251156,3.70194408 L14.1251156,0.784591133 C14.1251156,0.351273415 14.5828671,0 15.0003155,0 Z" id="path-1"></path>
    </defs>
    <g id="Asset" stroke="none" stroke-width="1" fill="none" fill-rule="evenodd">
        <g id="Group">
            <rect id="Rectangle" x="0" y="0" width="24" height="24"></rect>
            <g id="Icons/48px/Notifications/ic_notifications_white" transform="translate(2.000000, 2.000000)">
                <circle id="Oval" fill="#FFFFFF" cx="4.025" cy="9.375" r="1"></circle>
                <circle id="Oval" fill="#FFFFFF" cx="7.025" cy="9.375" r="1"></circle>
                <circle id="Oval" fill="#FFFFFF" cx="10.025" cy="9.375" r="1"></circle>
                <circle id="Oval" fill="#FFFFFF" cx="4.025" cy="12.375" r="1"></circle>
                <circle id="Oval" fill="#FFFFFF" cx="7.025" cy="12.375" r="1"></circle>
                <circle id="Oval" fill="#FFFFFF" cx="10.025" cy="12.375" r="1"></circle>
                <circle id="Oval" fill="#FFFFFF" cx="13.025" cy="12.375" r="1"></circle>
                <circle id="Oval" fill="#FFFFFF" cx="16.025" cy="12.375" r="1"></circle>
                <circle id="Oval" fill="#FFFFFF" cx="13.025" cy="15.375" r="1"></circle>
                <circle id="Oval" fill="#FFFFFF" cx="16.025" cy="15.375" r="1"></circle>
                <mask id="mask-2" fill="white">
                    <use xlink:href="#path-1"></use>
                </mask>
                <use id="Combined-Shape" fill="#FFFFFF" fill-rule="nonzero" xlink:href="#path-1"></use>
            </g>
        </g>
    </g>
</svg>