<?xml version="1.0" encoding="UTF-8"?>
<svg width="32px" height="32px" viewBox="0 0 32 32" version="1.1" xmlns="http://www.w3.org/2000/svg" xmlns:xlink="http://www.w3.org/1999/xlink">
    <title>General/Icon/32x32px/Delete</title>
    <defs>
        <path d="M14.5868237,5.93265509e-05 C14.8336066,-0.00269978625 15.0711151,0.0908812603 15.2456286,0.259635963 C15.4201421,0.428390667 15.5169167,0.658061536 15.5140634,0.896700776 L15.5140634,3.77992005 L20.1713355,3.77992005 C20.6425368,3.82870084 20.9998716,4.01991625 20.9998716,4.47817202 C20.9998716,4.93642779 20.789959,5.20113027 20.3187577,5.24991106 L19.3072235,5.24991106 L18.1061198,20.1744919 C18.0728393,20.6400427 17.6720023,21.0009207 17.1894169,20.9999982 L3.92356729,20.9999982 C3.44098192,21.0009207 3.0401449,20.6400427 3.00686442,20.1744919 L1.95318296,5.24991106 L1.02594327,5.24991106 C0.673020358,5.28644716 0.329495356,5.24476472 0.141212295,4.95380898 C-0.0470707652,4.66285323 -0.0470707652,4.48678573 0.141212295,4.19582999 C0.329495356,3.90487424 0.673020358,3.74338395 1.02594327,3.77992005 L5.68321534,3.77992005 L5.68321534,0.896700776 C5.68039969,0.659838574 5.77573618,0.431739503 5.94795744,0.263287188 C6.1201787,0.0948348723 6.35495681,-0.00016363906 6.59991821,5.93265509e-05 Z M17.8490923,5.24991106 L3.36602477,5.24991106 L4.43349524,19.5298237 L16.73942,19.5298237 L17.8490923,5.24991106 Z M10.5167357,7.35659486 C10.9249821,7.35659486 11.2559312,7.63624853 11.2559312,8.13144993 L11.2559312,16.3281278 C11.2157161,16.7837799 10.8987239,17.0325024 10.5209357,17.0325024 C10.1431474,17.0325024 9.82615527,16.7837799 9.78594016,16.3281278 L9.78594016,8.13144993 C9.78591401,7.64020048 10.1117735,7.36217724 10.5167357,7.35659486 Z M14.2290929,7.37537078 C14.6320276,7.4162267 14.9324158,7.72159251 14.8895745,8.21097032 L14.175187,16.3764574 C14.0954122,16.8268706 13.7579487,17.0470189 13.381598,17.0140925 C13.0052474,16.9811661 12.7111391,16.7057624 12.7107897,16.2483392 L13.4251773,8.08285216 C13.4683369,7.58953516 13.8224,7.33978977 14.2290929,7.37537078 Z M6.65745514,7.37537078 C7.06414803,7.33978977 7.41821118,7.58953516 7.46137083,8.08285216 L8.17575838,16.2483392 C8.17540899,16.7057624 7.88130068,16.9811661 7.50495004,17.0140925 C7.1285994,17.0470189 6.7911359,16.8268706 6.71136113,16.3764574 L5.99697357,8.21097032 C5.95413231,7.72159251 6.25452045,7.4162267 6.65745514,7.37537078 Z M14.0447141,1.46993417 L7.14835629,1.46993417 L7.14835629,3.78338272 L14.0447141,3.78338272 L14.0447141,1.46993417 Z" id="path-1"></path>
    </defs>
    <g id="Icon/32x32px/Delete" stroke="none" stroke-width="1" fill="#ffffff" fill-rule="evenodd">
        <g id="Group">
            <rect id="Rectangle" fill-opacity="0" fill="#D8D8D8" x="0" y="0" width="32" height="32"></rect>
            <g id="1.Icon/delete" transform="translate(5.500000, 5.500068)">
                <mask id="mask-2" fill="white">
                    <use xlink:href="#path-1"></use>
                </mask>
                <use id="Combined-Shape" fill="#FFFFFF" fill-rule="nonzero" xlink:href="#path-1"></use>
            </g>
        </g>
    </g>
</svg>