<?xml version="1.0" encoding="UTF-8"?>
<svg width="20px" height="20px" viewBox="0 0 20 20" version="1.1" xmlns="http://www.w3.org/2000/svg" xmlns:xlink="http://www.w3.org/1999/xlink">
    <title>Icon/20x20px/Export</title>
    <defs>
        <path d="M2.91619027,5.93606044 C3.28896525,5.97599634 3.57165855,6.29078758 3.57165855,6.6659528 C3.57165855,7.04111801 3.28896525,7.35590926 2.91619027,7.39584516 L1.459,7.395 L1.45987871,15.207894 L15.2068799,15.207894 L15.206,7.395 L13.7555143,7.39584516 C13.3827393,7.35590926 13.100046,7.04111801 13.100046,6.6659528 C13.100046,6.29078758 13.3827393,5.97599634 13.7555143,5.93606044 L15.6671227,5.93606044 C16.2194074,5.93606044 16.6671227,6.38377569 16.6671227,6.93606044 L16.6667127,7.10620678 L16.6667127,15.9331124 C16.6688937,16.1268925 16.5934191,16.3135034 16.4570776,16.4513165 C16.3207361,16.5891295 16.1348705,16.6666667 15.9409431,16.6666667 L0.725815542,16.6666667 C0.531888185,16.6666667 0.346022581,16.5891295 0.209681042,16.4513165 C0.0733395038,16.3135034 -0.0021350535,16.1268925 4.59893384e-05,15.9331124 L4.59893384e-05,7.10620678 L0.005,7.079 L0.00459495358,6.94057973 C0.00458474151,6.38377569 0.452299992,5.93606044 1.00458474,5.93606044 Z M8.46684535,0 C8.66114891,0.00099541084 8.84713129,0.0789339532 8.98402622,0.216731945 L12.5876091,3.81781656 C12.8709367,4.10324965 12.8690694,4.56416209 12.5834383,4.8472933 C12.2978071,5.13042451 11.836575,5.12855847 11.5532473,4.84312538 L9.16754202,2.45907399 L9.16754202,11.5789895 C9.19745342,11.8581925 9.06524441,12.1299607 8.82704452,12.2789144 C8.58884463,12.4278682 8.28645469,12.4278682 8.0482548,12.2789144 C7.81005491,12.1299607 7.6778459,11.8581925 7.7077573,11.5789895 L7.7077573,2.52576074 L5.39712664,4.85146122 C5.10562107,5.09695109 4.67458374,5.07860336 4.40502446,4.80923095 C4.13546517,4.53985854 4.11710472,4.10912004 4.36276489,3.81781656 L7.94966448,0.216731945 C8.08805335,0.08116527 8.27308737,0.0036241512 8.46684535,0 Z" id="path-1"></path>
    </defs>
    <g id="Asset" stroke="none" stroke-width="1" fill="none" fill-rule="evenodd">
        <g id="Group-2" transform="translate(0.000000, 0.000000)">
            <rect id="Rectangle" x="0" y="0" width="20" height="20"></rect>
            <g id="🎨icon-color/selected-race" transform="translate(1.666621, 1.666667)">
                <mask id="mask-2" fill="white">
                    <use xlink:href="#path-1"></use>
                </mask>
                <use id="Mask" fill="#fff" fill-rule="nonzero" xlink:href="#path-1"></use>
            </g>
        </g>
    </g>
</svg>