<?xml version="1.0" encoding="UTF-8"?>
<svg width="27px" height="24px" viewBox="0 0 27 24" version="1.1" xmlns="http://www.w3.org/2000/svg" xmlns:xlink="http://www.w3.org/1999/xlink">
    <title>Icon/24x24px/Early Settlement_default</title>
    <g id="Asset" stroke="none" stroke-width="1" fill="none" fill-rule="evenodd">
        <g id="Group">
            <rect id="Rectangle" x="0" y="0" width="27" height="24"></rect>
            <g id="bank-note-01-svgrepo-com" transform="translate(11.500000, 12.000000) scale(-1, 1) translate(-11.500000, -12.000000) translate(3.000000, 4.000000)"></g>
            <path d="M2.5,9.62930519 C2.5,8.70206343 2.5,4.6112431 2.5,4.51551616 C2.5,4.41978922 4.00798014,4.41978922 4.72102404,4.51551616 C5.38098479,4.60411663 6.13909438,4.76055017 6.99995348,4.76055017 C9.69992558,4.76055017 13.9640029,3 16.5668589,3 C18.2789214,3 20.5,3.64252126 20.5,3.77959969 C20.5,3.91667812 20.5,17.4814042 20.5,17.7748789 C20.5,18.0683536 19.2057319,17.7316575 18.2789214,17.5297327 C17.6302081,17.388518 17.4277,17.3152945 16.5668589,17.3152945 C13.8668868,17.3152945 10.6000208,19 7.00005802,19 C4.42296708,19 2.5,17.9763263 2.5,17.7748789 C2.50013938,17.6405807 2.50013938,17.1748074 2.5,16.3775591" id="Path" stroke="#00c06c" stroke-width="1.75" transform="translate(11.500000, 11.000000) scale(-1, 1) translate(-11.500000, -11.000000) "></path>
            <path d="M25,13 L19,12.9935471 M25,13 L23.2483891,15 M25,13 L23.2483891,11" id="Shape" stroke="#00c06c" stroke-linecap="round" stroke-linejoin="round"></path>
            <path d="M13.4002934,8.42528777 C13.0561036,8.11597038 12.507138,7.85935771 11.9696562,7.78470746 C11.9696562,7.43093997 11.9696562,7.18122196 11.9696562,7.03555343 C11.9696562,6.81705063 11.9023556,6.75 11.4851224,6.75 C11.0678892,6.75 10.9631709,6.78940079 10.9631709,7.03555343 C10.9631709,7.19965518 10.9631709,7.44937319 10.9631709,7.78470746 C10.0181709,7.96470746 9.42746024,8.68818209 9.42746024,9.66918209 C9.42746024,11.9478674 12.6583066,11.342682 12.6583066,12.557682 C12.6583066,13.070682 12.1151224,13.4572069 11.4851224,13.4572069 C11.0417413,13.4572069 10.4155621,13.2908479 9.96708232,12.9875672 C9.89666281,12.9399466 9.73831159,12.8774189 9.64170858,13.01805 C9.64170858,13.01805 9.28730787,13.5578296 9.28730787,13.5578296 C9.20289332,13.7035354 9.28041949,13.8192176 9.33626893,13.8620209 C9.80039347,14.2177278 10.4169046,14.3804408 10.9631709,14.4447075 C10.9604877,14.8199208 10.9591461,15.0953309 10.9591461,15.2709375 C10.9591461,15.4161175 11.0321059,15.4887075 11.1780254,15.4887075 L11.7485587,15.4887075 C11.895957,15.4887075 11.9696562,15.4099158 11.9696562,15.2523325 C11.9696562,15.0728603 11.9696562,14.8036519 11.9696562,14.4447075 C13.0046562,14.2467075 13.6951687,13.538682 13.6951687,12.557682 C13.6951687,10.507023 10.4495389,10.7851821 10.4495389,9.66918209 C10.4495389,9.09789458 11.0031751,8.74777117 11.5341751,8.74777117 C11.8879555,8.74777117 12.4145293,8.96196237 12.6903297,9.17003906 C12.7723569,9.23192419 12.9325941,9.35977653 13.1088911,9.18802417 C13.1088911,9.18802417 13.4002934,8.8537797 13.4033445,8.8537797 C13.5644532,8.66891526 13.4710665,8.48889032 13.4002934,8.42528777 Z" id="Path" fill="#00c06c" fill-rule="nonzero"></path>
        </g>
    </g>
</svg>