<?xml version="1.0" encoding="UTF-8"?>
<svg width="16px" height="12px" viewBox="0 0 16 12" version="1.1" xmlns="http://www.w3.org/2000/svg" xmlns:xlink="http://www.w3.org/1999/xlink">
    <title>icon/eye/open - blue </title>
    <g id="2.-Betslip-icon" stroke="none" stroke-width="1" fill="none" fill-rule="evenodd">
        <g id="1-betslip-redesign" transform="translate(-592.000000, -266.000000)" fill="#FFFFFF" fill-rule="nonzero">
            <g id="Betslip-after-Login-(updated)-Copy" transform="translate(475.000000, 216.000000)">
                <g id="Balance" transform="translate(69.000000, 48.000000)">
                    <g id="icon/eye/open---blue-" transform="translate(48.666667, 2.666667)">
                        <g id="eyeclose" transform="translate(-0.000000, 0.000000)">
                            <path d="M14.548,5.34893636 C13.0783913,2.75967609 10.3100758,1.18182321 7.33333333,1.23680303 C6.38159214,1.24095749 5.4370276,1.40177469 4.53753333,1.71280303 L5.29286667,2.46813636 C5.95752883,2.28446552 6.64376281,2.19047745 7.33333333,2.1886697 L7.54906667,2.19160303 C9.95212279,2.21596417 12.1838598,3.44021704 13.4957333,5.45373636 L13.565,5.57013636 L13.4950667,5.68693636 C12.8575398,6.69946936 11.9622403,7.52427144 10.9009333,8.07680303 L11.6054,8.78113636 C12.8467863,8.0799802 13.86635,7.04433966 14.548,5.79213636 L14.6666667,5.5704697 L14.548,5.34893636 Z" id="Path"></path>
                            <path d="M7.33333333,8.9516697 L7.1176,8.94873636 C4.71498542,8.92409494 2.48372863,7.70004976 1.17193333,5.68700303 L1.10093333,5.57013636 L1.1716,5.4536697 C1.80920613,4.44097365 2.70464931,3.61605139 3.76613333,3.0634697 L3.0616,2.3590697 C1.81996351,3.06042153 0.800248927,4.09637487 0.1186,5.34893636 L0,5.5704697 L0.118666667,5.79200303 C1.58854513,8.38091049 4.3567646,9.95845283 7.33333333,9.9034697 C8.28542352,9.89931975 9.23033208,9.73841141 10.1301333,9.42720303 L9.37473333,8.67180303 C8.70978527,8.85567733 8.02323347,8.94980046 7.33333333,8.9516697 Z" id="Path"></path>
                            <path d="M7.4,8.1534697 C7.81172602,8.15178429 8.21829006,8.06170954 8.5922,7.88933636 L7.84666667,7.14380303 C7.70056748,7.18056909 7.55064495,7.19999189 7.4,7.2016697 C6.42403666,7.23069505 5.60875258,6.46423198 5.57753333,5.48833636 C5.58017777,5.31125474 5.61214397,5.13583487 5.67213333,4.96920303 L4.94546667,4.2428697 C4.72764487,4.62206191 4.61136251,5.05104831 4.60786667,5.48833636 C4.64375313,6.99495818 5.89333982,8.1877075 7.4,8.1534697 L7.4,8.1534697 Z" id="Path"></path>
                            <path d="M7.4,3.7750697 C8.3761853,3.74567022 9.19182437,4.51227071 9.22293333,5.48840303 C9.22121268,5.7425316 9.15954112,5.99266687 9.04293333,6.2184697 L9.7472,6.9226697 C10.0356097,6.49983164 10.1906168,6.00023277 10.1922,5.48840303 C10.1563144,3.98178516 8.90665282,2.78908236 7.4,2.8234697 C6.91417466,2.82558906 6.43687379,2.95126338 6.013,3.1886697 L6.72453333,3.90013636 C6.9402976,3.81803035 7.16914232,3.7756584 7.4,3.7750697 Z" id="Path"></path>
                            <path d="M12.4856,11.1388036 C12.3749629,11.1389798 12.2688187,11.0950489 12.1906667,11.0167364 L1.88666667,0.712736364 C1.78067291,0.607525588 1.73905962,0.453651964 1.77757822,0.309359545 C1.81609682,0.165067126 1.9288615,0.0524044198 2.0731887,0.0140163727 C2.21751591,-0.0243716743 2.37135182,0.0173807983 2.47646667,0.123469697 L12.7805333,10.4274697 C12.8997186,10.5466774 12.9353348,10.7259544 12.8707669,10.8816676 C12.806199,11.0373809 12.6541693,11.1388036 12.4856,11.1388036 L12.4856,11.1388036 Z" id="Path"></path>
                        </g>
                    </g>
                </g>
            </g>
        </g>
    </g>
</svg>