<?xml version="1.0" encoding="UTF-8"?>
<svg width="16px" height="9px" viewBox="0 0 16 9" version="1.1" xmlns="http://www.w3.org/2000/svg" xmlns:xlink="http://www.w3.org/1999/xlink">
    <title>icon/eye/open - blue </title>
    <defs>
        <path d="M7.33302393,0 C10.4303736,0 13.2100677,1.61371678 14.5480353,4.11211876 L14.6666667,4.33364046 L14.5480125,4.55515039 C13.2099676,7.0530834 10.4302171,8.66666667 7.33302393,8.66666667 C4.23635456,8.66666667 1.45665907,7.05300865 0.118654197,4.55515039 L0,4.33364046 L0.118631382,4.11211875 C1.45655898,1.61379154 4.23619808,0 7.33302393,0 Z M7.33302393,0.951827207 C4.73702727,0.951827207 2.40377703,2.22713122 1.17164655,4.21695137 L1.10092154,4.33335592 L1.1716337,4.45016896 C2.36959709,6.38436045 4.60836489,7.643443 7.11732636,7.71189959 L7.33302393,7.71483946 C9.9294099,7.71483946 12.2628007,6.43968146 13.4950273,4.45017819 L13.5649903,4.33335592 L13.4950144,4.21694214 C12.2970751,2.28234697 10.0583061,1.02322559 7.54877199,0.954767148 Z M7.39966464,1.586416 C8.93837837,1.586416 10.1920035,2.77577782 10.1920035,4.25153218 C10.1920035,5.72728654 8.93837837,6.91664836 7.39966464,6.91664836 C5.86171149,6.91664836 4.60783285,5.72704601 4.60783285,4.25153218 C4.60783285,2.77601835 5.86171149,1.586416 7.39966464,1.586416 Z M7.39966464,2.53824321 C6.38978067,2.53824321 5.57721889,3.30915147 5.57721889,4.25153218 C5.57721889,5.19391289 6.38978067,5.96482115 7.39966464,5.96482115 C8.41030919,5.96482115 9.22261745,5.19415342 9.22261745,4.25153218 C9.22261745,3.30891094 8.41030919,2.53824321 7.39966464,2.53824321 Z" id="path-1"></path>
    </defs>
    <g id="2.-Betslip-icon" stroke="none" stroke-width="1" fill="none" fill-rule="evenodd">
        <g id="1-betslip-redesign" transform="translate(-183.000000, -268.000000)">
            <g id="Betslip-after-Login-(updated)" transform="translate(66.000000, 216.000000)">
                <g id="Balance" transform="translate(69.000000, 48.000000)">
                    <g id="icon/eye/open---blue-" transform="translate(48.666667, 4.000000)">
                        <g id="🎨icon-color/selected-race" transform="translate(-0.000000, 0.000000)">
                            <mask id="mask-2" fill="white">
                                <use xlink:href="#path-1"></use>
                            </mask>
                            <use id="Combined-Shape" fill="#FFFFFF" fill-rule="nonzero" xlink:href="#path-1"></use>
                            <g mask="url(#mask-2)" fill="#FFFFFF" id="Rectangle">
                                <g transform="translate(-1.333333, -5.333333)">
                                    <rect x="0" y="0" width="18" height="18"></rect>
                                </g>
                            </g>
                        </g>
                    </g>
                </g>
            </g>
        </g>
    </g>
</svg>