<?xml version="1.0" encoding="UTF-8"?>
<svg width="17px" height="18px" viewBox="0 0 17 18" version="1.1" xmlns="http://www.w3.org/2000/svg" xmlns:xlink="http://www.w3.org/1999/xlink">
    <title>Icon/flag</title>
    <g id="4.0-loading" stroke="none" stroke-width="1" fill="none" fill-rule="evenodd">
        <g id="sp4e-loading" transform="translate(-465.000000, -761.000000)" fill="#999999" fill-rule="nonzero">
            <g id="Group-8" transform="translate(252.000000, 575.000000)">
                <g id="Thread" transform="translate(0.006007, 168.000000)">
                    <g id="Flag,-mark,-point" transform="translate(213.000000, 18.000000)">
                        <path d="M15.6841714,0.643944121 C15.4906331,0.542869567 15.2588238,0.564579455 15.0857142,0.699992076 C12.8100571,2.47686695 9.83999997,1.64423947 6.96742855,0.838326997 C4.4238857,0.124340307 2.02319999,-0.547461669 0.254228571,0.680833433 C0.095578907,0.791444997 0.000253948436,0.977060593 0,1.1758642 L0,17.2864893 C0,17.6805504 0.306800072,18 0.685257141,18 C1.06371421,18 1.37051428,17.6805504 1.37051428,17.2864893 L1.37051428,12.1313355 C2.71554285,11.594358 4.64022856,12.1275275 6.66965712,12.6965749 C8.3273367,13.2426186 10.0457503,13.5636872 11.7823428,13.6518296 C13.2129321,13.6962604 14.6168268,13.2421625 15.7714285,12.3615367 C15.9153744,12.2492198 16,12.0728404 16,11.8855456 L16,1.17574521 C15.999594,0.950608872 15.8774314,0.744908146 15.6841714,0.643944121 Z" id="Path"></path>
                    </g>
                </g>
            </g>
        </g>
    </g>
</svg>