<?xml version="1.0" encoding="UTF-8"?>
<svg width="48px" height="48px" viewBox="0 0 48 48" version="1.1" xmlns="http://www.w3.org/2000/svg" xmlns:xlink="http://www.w3.org/1999/xlink">
    <title>Icons/48px/Help/ic_help_white</title>
    <g id="Icons/48px/Help/ic_help_white" stroke="none" stroke-width="1" fill="none" fill-rule="evenodd">
        <path d="M23.9999106,7.00995567 C14.4104926,7.00995567 6.60885567,14.8115926 6.60885567,24.4010106 C6.60885567,33.9908798 14.4104926,41.7925167 23.9999106,41.7925167 C33.5893287,41.7925167 41.3909656,33.9908798 41.3909656,24.4010106 C41.3909656,14.8115926 33.5893287,7.00995567 23.9999106,7.00995567 M23.9999106,45.4014618 C12.4206105,45.4014618 2.99991064,35.9807619 2.99991064,24.4010106 C2.99991064,12.8217105 12.4206105,3.40101064 23.9999106,3.40101064 C35.5792108,3.40101064 44.9999106,12.8217105 44.9999106,24.4010106 C44.9999106,35.9807619 35.5792108,45.4014618 23.9999106,45.4014618" id="Fill-1" fill="#FFFFFF"></path>
        <path d="M23.4878049,37.8292683 C24.6197198,37.8292683 25.5365854,36.9120268 25.5365854,35.7807299 C25.5365854,34.6489488 24.6197198,33.7317073 23.4878049,33.7317073 C22.35589,33.7317073 21.4390244,34.6489488 21.4390244,35.7807299 C21.4390244,36.9120268 22.35589,37.8292683 23.4878049,37.8292683" id="Fill-4" fill="#FFFFFF"></path>
        <path d="M25.9334602,28.8807839 C25.889097,29.9038236 24.9881114,30.6985962 23.9206492,30.6569736 C22.8527297,30.6144747 22.0226339,29.7509153 22.0665398,28.7278756 C22.0985545,27.9913746 22.2888134,26.9990042 22.7946459,25.9667637 C23.3704535,24.7903776 24.2563464,23.8497068 25.5067498,23.3090512 C27.5163593,22.4411104 28.8376525,20.7446609 28.8376525,19.5367292 C28.8376525,16.9771583 26.6716282,14.9026003 23.9997713,14.9026003 C21.3283718,14.9026003 19.1623475,16.9771583 19.1623475,19.5367292 C19.1623475,20.560207 18.2965781,21.3900302 17.2277439,21.3900302 C16.1589097,21.3900302 15.2926829,20.560207 15.2926829,19.5367292 C15.2926829,14.9297645 19.1911608,11.195122 23.9997713,11.195122 C28.8088392,11.195122 32.7073171,14.9297645 32.7073171,19.5367292 C32.7073171,22.3092325 30.4123192,25.2569889 27.0978813,26.6888063 C26.7736179,26.8285706 26.5097252,27.1094137 26.2979707,27.5409743 C26.1552765,27.8323325 26.0523721,28.164437 25.9878853,28.4991704 C25.949925,28.6954538 25.9352897,28.83478 25.9334602,28.8807839" id="Fill-6" fill="#FFFFFF"></path>
    </g>
</svg>