<?xml version="1.0" encoding="UTF-8"?>
<svg width="20px" height="20px" viewBox="0 0 20 20" version="1.1" xmlns="http://www.w3.org/2000/svg" xmlns:xlink="http://www.w3.org/1999/xlink">
    <title>Football/Icon/20x20px/Corner kick</title>
    <g id="Asset" stroke="none" stroke-width="1" fill="none" fill-rule="evenodd">
        <g id="Icon/20x20px/Corner-kick">
            <rect id="Rectangle" x="0" y="0" width="20" height="20"></rect>
            <g id="Match-Listings/xElements/Icons/ic_corners_black" transform="translate(5.000000, 4.000000)" fill="#333333">
                <rect id="Rectangle" transform="translate(0.525000, 6.000000) scale(-1, 1) rotate(180.000000) translate(-0.525000, -6.000000) " x="7.21644966e-16" y="2.66453526e-15" width="1.05" height="12" rx="0.525"></rect>
                <path d="M5.4,-4.875 C5.68994949,-4.875 5.925,-4.63994949 5.925,-4.35 L5.925,5.4 C5.925,5.68994949 5.68994949,5.925 5.4,5.925 C5.11005051,5.925 4.875,5.68994949 4.875,5.4 L4.875,-4.35 C4.875,-4.63994949 5.11005051,-4.875 5.4,-4.875 Z" id="Rectangle-Copy" transform="translate(5.400000, 0.525000) scale(-1, 1) rotate(270.000000) translate(-5.400000, -0.525000) "></path>
                <path d="M6,6 L4.95625691,6 C4.95625691,3.96443599 3.08556379,2.11308731 1.05,2.11308731 L1.05,1.05 C3.74830549,1.05 6,3.30169422 6,6 Z" id="Oval-7" fill-rule="nonzero" transform="translate(3.525000, 3.525000) scale(-1, 1) rotate(180.000000) translate(-3.525000, -3.525000) "></path>
            </g>
        </g>
        <g id="Group-3" transform="translate(-109.000000, -690.000000)"></g>
    </g>
</svg>