<?xml version="1.0" encoding="UTF-8"?>
<svg width="48px" height="48px" viewBox="0 0 48 48" version="1.1" xmlns="http://www.w3.org/2000/svg" xmlns:xlink="http://www.w3.org/1999/xlink">
    <title>Icons/48px/Leagues/ic_leagues_white</title>
    <g id="Symbols" stroke="none" stroke-width="1" fill="none" fill-rule="evenodd">
        <g id="Icons/48px/Leagues/ic_leagues_white" fill="#FFFFFF">
            <path d="M23.0547605,24.2482894 C23.4379276,24.7051787 23.5008497,25.3663298 23.1716828,25.8931846 C23.1632306,25.906802 23.1580654,25.9218282 23.1491436,25.9354456 C23.1007781,26.0072895 23.0416126,26.0659854 22.9829167,26.1256205 C22.7129153,26.4031349 22.3518179,26.5580922 21.9789813,26.5580922 C21.7085104,26.5580922 21.4356916,26.4806136 21.1943339,26.3181432 C21.0576897,26.2265775 20.9266804,26.1303162 20.7952015,26.034994 C20.7304011,25.9870981 20.663253,25.94155 20.5993918,25.8931846 C20.051876,25.4799651 19.551317,25.0348151 19.1005322,24.5619606 C18.911766,24.363803 18.7352086,24.1600107 18.564286,23.9529314 C18.0285095,23.3039891 17.5791333,22.6127857 17.2246098,21.8887125 C16.5944502,20.6006887 16.2591789,19.2121775 16.2591789,17.7856312 L16.2591789,9.04510085 L16.2591789,7.83173829 C16.2591789,7.58944144 16.325388,7.36592728 16.4329189,7.16683064 C16.6709897,6.72637628 17.1316354,6.42303564 17.6678816,6.42303564 C18.2036582,6.42303564 18.6643039,6.72637628 18.9023747,7.16683064 C19.0099056,7.36592728 19.0765842,7.58944144 19.0765842,7.83173829 L19.0765842,9.04510085 L19.0765842,13.4886186 L19.0765842,17.7856312 C19.0765842,19.3901436 19.6997004,20.9472296 20.8351147,22.2756362 C21.0158982,22.4874111 21.2117079,22.6926121 21.4183176,22.8917088 C21.8216761,23.2809803 22.2701131,23.6467734 22.766446,23.9806359 C22.7814722,23.9904968 22.7932114,24.0041143 22.807768,24.0149144 C22.9016815,24.0834712 22.9829167,24.1623586 23.0547605,24.2482894 L23.0547605,24.2482894 Z M6.75654041,16.8699745 L6.75654041,11.5765395 L6.75700997,11.6065918 L6.76499262,11.5089218 C6.77297527,11.3915299 6.77015786,11.274138 6.75654041,11.1576853 L6.75654041,9.13948392 C7.0040025,9.08783149 7.3383346,9.04510085 7.74122356,9.04510085 L9.8345557,9.04510085 L9.8345557,9.80157417 C9.8345557,9.85087876 9.83643397,9.89971379 9.83972094,9.94854881 C9.8373731,10.0358884 9.8345557,10.1241671 9.8345557,10.2124458 L9.8345557,19.0168374 C9.8345557,19.2830822 9.84347748,19.5469791 9.85803408,19.8099369 C7.85485891,18.8524887 6.75654041,17.7781182 6.75654041,16.8699745 L6.75654041,16.8699745 Z M25.6970171,35.7775815 C25.136823,35.7226421 24.5714637,35.6855463 24,35.6855463 C23.4280667,35.6855463 22.863177,35.7226421 22.3025133,35.7775815 L22.3025133,33.0775681 C22.8594204,33.1437771 23.4252493,33.1822817 24,33.1822817 C24.5747507,33.1822817 25.14011,33.1437771 25.6970171,33.0770985 L25.6970171,35.7775815 Z M28.500805,42.3012835 L19.499195,42.3012835 L15.8126202,42.3012835 C16.6160503,41.6194714 17.5392201,41.0447207 18.5459729,40.591588 C19.144202,40.3225258 19.773892,40.1013595 20.4242431,39.923863 C21.5605966,39.6134788 22.7631591,39.4420867 24,39.4420867 C25.2363714,39.4420867 26.4394034,39.6134788 27.5752873,39.923863 C28.226108,40.1013595 28.855798,40.3225258 29.4535575,40.591588 C30.4607799,41.0447207 31.3839497,41.6194714 32.1869102,42.3012835 L28.500805,42.3012835 Z M32.1671884,25.4578954 C31.4121238,26.4134654 30.4941192,27.2352086 29.4535575,27.877577 C28.8637807,28.242431 28.2354993,28.5509369 27.5752873,28.7932338 C26.9737713,29.0139305 26.3450203,29.1787487 25.6970171,29.2853405 C25.1443361,29.3764367 24.5780377,29.4257412 24,29.4257412 C23.4219623,29.4257412 22.8551943,29.3764367 22.3025133,29.2858101 C21.6549797,29.1787487 21.0262287,29.0139305 20.4242431,28.7932338 C19.7645007,28.5509369 19.1362193,28.242431 18.5459729,27.8780466 C17.5058808,27.2352086 16.5878762,26.4134654 15.832342,25.4578954 C15.3068959,24.7929878 14.8612763,24.0632798 14.5091007,23.2819194 C14.2113948,22.622177 13.9794285,21.927217 13.8240016,21.2036134 C13.6728009,20.498323 13.5910961,19.7672063 13.5910961,19.0168374 L13.5910961,10.2124458 C13.5910961,10.1603238 13.5934439,10.1082018 13.5948526,10.0560798 L13.5986092,9.93164438 C13.6000179,9.89032244 13.5995483,9.84900049 13.5976701,9.80720898 C13.5962613,9.77340012 13.5943831,9.74006082 13.5910961,9.70625196 L13.5910961,9.04510085 L13.5910961,7.16683064 L13.5910961,5.28856044 L13.5910961,4.75654041 L34.4084343,4.75654041 L34.4084343,5.28856044 L34.4084343,7.16683064 L34.4084343,9.04510085 L34.4084343,9.7114172 C34.4056169,9.74053039 34.4037387,9.76964358 34.4027995,9.79218282 C34.4004517,9.83960914 34.3995125,9.88750503 34.4009212,9.93587049 L34.4042082,10.0462189 C34.4060865,10.1016278 34.4084343,10.1570368 34.4084343,10.2124458 L34.4084343,19.0168374 C34.4084343,19.7672063 34.3267296,20.498323 34.1755288,21.2036134 C34.020102,21.927217 33.7881356,22.6226466 33.4908993,23.2819194 C33.1382541,24.0632798 32.6926345,24.7929878 32.1671884,25.4578954 L32.1671884,25.4578954 Z M41.2434596,11.1595635 C41.24299,11.1637896 41.2425205,11.1675462 41.2420509,11.1713027 C41.2298421,11.2811815 41.2274943,11.3919995 41.2345378,11.5023478 L41.2434596,16.8699745 C41.2434596,17.7781182 40.1446715,18.8524887 38.1414964,19.8099369 C38.1560529,19.5469791 38.1649747,19.2830822 38.1649747,19.0168374 L38.1649747,10.2124458 C38.1649747,10.1213497 38.1626269,10.0302536 38.1593399,9.93962703 C38.1630965,9.89032244 38.1649747,9.84101784 38.1649747,9.80157417 L38.1649747,9.04510085 L40.2587764,9.04510085 C40.6611958,9.04510085 40.9955279,9.08783149 41.2434596,9.13948392 L41.2434596,11.1595635 Z M45,8.27313179 C45,6.46013148 43.1386342,5.28856044 40.2587764,5.28856044 L38.1649747,5.28856044 L38.1649747,4.71803587 C38.1649747,2.66790394 36.4970708,1 34.4474084,1 L13.5525916,1 C11.5024596,1 9.8345557,2.66790394 9.8345557,4.71803587 L9.8345557,5.28856044 L7.74122356,5.28856044 C4.8608962,5.28856044 3,6.46013148 3,8.27313179 L3,11.3290774 C3,11.3671124 3.00093914,11.4051474 3.00328697,11.4431823 C3.00093914,11.4873217 3,11.5319306 3,11.5765395 L3,16.8699745 C3,19.6737624 5.41545548,22.1512008 9.80168597,23.84587 C10.1332007,23.9735924 10.4769241,24.0947408 10.8262824,24.2130719 C12.231698,27.7634721 15.0293815,30.6165646 18.5459729,32.0891284 L18.5459729,36.5744376 C14.9401637,37.7835741 11.9175574,40.1614642 10.2421403,43.2944189 C9.93081705,43.876213 9.94819105,44.5791557 10.2876884,45.1454541 C10.6267162,45.711283 11.2385627,46.0578239 11.8987747,46.0578239 L36.1012253,46.0578239 C36.7609678,46.0578239 37.3728143,45.711283 37.7123116,45.1454541 C38.0513394,44.5791557 38.0687134,43.876213 37.7573901,43.2944189 C36.0824426,40.1614642 33.0593668,37.7835741 29.4535575,36.5744376 L29.4535575,32.0891284 C32.9701489,30.6165646 35.768302,27.7634721 37.1737176,24.2130719 C37.5230759,24.0947408 37.8663298,23.9735924 38.1978445,23.84587 C42.584075,22.1512008 45,19.6737624 45,16.8699745 L45,11.5765395 C45,11.5319306 44.9985913,11.4873217 44.9962435,11.4403649 C44.9985913,11.4027995 45,11.3652341 45,11.3290774 L45,8.27313179 Z" id="Fill-1"></path>
        </g>
    </g>
</svg>