<?xml version="1.0" encoding="UTF-8"?>
<svg width="24px" height="34px" viewBox="0 0 24 34" version="1.1" xmlns="http://www.w3.org/2000/svg" xmlns:xlink="http://www.w3.org/1999/xlink">
    <title>Buttons/Small Use Buttons/Icon/Light Grey/Normal Copy</title>
    <defs>
        <path d="M10.3333333,2.33333333 L12.6666667,2.33333333 L12.6666667,13.3333333 L10.3333333,13.3333333 L10.3333333,2.33333333 Z M5,6.66666667 L7.33333333,6.66666667 L7.33333333,13.3333333 L5,13.3333333 L5,6.66666667 Z M8.8817842e-16,-1.77635684e-15 L2.33333333,-1.77635684e-15 L2.33333333,13.3333333 L8.8817842e-16,13.3333333 L8.8817842e-16,-1.77635684e-15 Z" id="path-1"></path>
    </defs>
    <g id="Symbols" stroke="none" stroke-width="1" fill="none" fill-rule="evenodd">
        <g id="TableElements/football/Handicap-HAD" transform="translate(-792.000000, -5.000000)">
            <g id="Group-2" transform="translate(792.000000, 5.000000)">
                <path d="M2.5638852,-1.03584031e-16 L21.4361148,1.03584031e-16 C22.3276335,-6.01853049e-17 22.6509198,0.0928256111 22.9768457,0.267132704 C23.3027716,0.441439796 23.5585602,0.697228371 23.7328673,1.0231543 C23.9071744,1.34908022 24,1.67236646 24,2.5638852 L24,31.4361148 C24,32.3276335 23.9071744,32.6509198 23.7328673,32.9768457 C23.5585602,33.3027716 23.3027716,33.5585602 22.9768457,33.7328673 C22.6509198,33.9071744 22.3276335,34 21.4361148,34 L2.5638852,34 C1.67236646,34 1.34908022,33.9071744 1.0231543,33.7328673 C0.697228371,33.5585602 0.441439796,33.3027716 0.267132704,32.9768457 C0.0928256111,32.6509198 4.01235366e-17,32.3276335 -6.90560205e-17,31.4361148 L6.90560205e-17,2.5638852 C-4.01235366e-17,1.67236646 0.0928256111,1.34908022 0.267132704,1.0231543 C0.441439796,0.697228371 0.697228371,0.441439796 1.0231543,0.267132704 C1.34908022,0.0928256111 1.67236646,6.01853049e-17 2.5638852,-1.03584031e-16 Z" id="Buttons/Small-Buttons/Empty/Dark-Green/Normal" fill="#E2E2E2"></path>
                <g id="Icons/48px/Notifications/ic_notifications_inactive" transform="translate(5.666667, 10.333333)">
                    <mask id="mask-2" fill="white">
                        <use xlink:href="#path-1"></use>
                    </mask>
                    <use id="Combined-Shape" fill="#00C06C" xlink:href="#path-1"></use>
                    <g id="color/racing-selected" mask="url(#mask-2)" fill="#00C06C">
                        <g transform="translate(-5.666667, -5.333333)" id="Rectangle">
                            <rect x="0" y="0" width="24" height="24"></rect>
                        </g>
                    </g>
                </g>
            </g>
        </g>
    </g>
</svg>