<?xml version="1.0" encoding="UTF-8"?>
<svg width="40px" height="40px" viewBox="0 0 40 40" version="1.1" xmlns="http://www.w3.org/2000/svg" xmlns:xlink="http://www.w3.org/1999/xlink">
    <title>General/Icon/40x40px/Video</title>
    <g id="Asset" stroke="none" stroke-width="1" fill="none" fill-rule="evenodd">
        <rect id="Rectangle" fill-opacity="0" fill="#D8D8D8" x="0" y="0" width="40" height="40"></rect>
        <g id="Icon/40x40px/Video" fill="#BBBBBB" fill-rule="nonzero">
            <g id="video_camera_front_black_24dp" transform="translate(0.000000, 4.000000)">
                <path d="M32,12.555 L32,3.875 C32,1.74375 30.2,0 28,0 L4,0 C1.8,0 0,1.74375 0,3.875 L0,27.125 C0,29.25625 1.8,31 4,31 L28,31 C30.2,31 32,29.25625 32,27.125 L32,18.445 C35.8555009,22.165668 37.7832514,24.026002 37.7832514,24.026002 C38.8635598,24.9955058 40,24.3641924 40,23.5292206 C40,12.6631081 40,7.4867425 40,7.4867425 C40,6.17480218 38.6729881,6.17480218 38.2860138,6.49587197 C38.2860138,6.49587197 36.1906759,8.51558131 32,12.555 Z M16,7.75 C18.2,7.75 20,9.49375 20,11.625 C20,13.75625 18.2,15.5 16,15.5 C13.8,15.5 12,13.75625 12,11.625 C12,9.49375 13.8,7.75 16,7.75 Z M24,23.25 L8,23.25 L8,22.145625 C8,20.57625 8.96,19.18125 10.44,18.56125 C12.14,17.844375 14.02,17.4375 16,17.4375 C17.98,17.4375 19.86,17.844375 21.56,18.56125 C23.04,19.18125 24,20.57625 24,22.145625 L24,23.25 Z" id="Shape"></path>
            </g>
        </g>
    </g>
</svg>