<?xml version="1.0" encoding="UTF-8"?>
<svg width="24px" height="24px" viewBox="0 0 24 24" version="1.1" xmlns="http://www.w3.org/2000/svg" xmlns:xlink="http://www.w3.org/1999/xlink">
    <title>Icon/print</title>
    <defs>
        <path d="M16.5262468,2 C17.5764637,2 18.4278327,2.86372978 18.4278327,3.92919446 L18.4278327,3.92919446 L18.4278327,7.44894818 C18.4334419,7.49323337 18.4334419,7.53806474 18.4278327,7.58234992 L18.4278327,7.58234992 L19.6314961,7.58234992 C20.53009,7.58231293 21.3914445,7.94655452 22.0239906,8.5940657 C22.6565367,9.24157688 23.0078262,10.1186687 22.9998677,11.0302719 L22.9998677,11.0302719 L22.9998677,15.0220626 C22.9942056,16.0001855 22.2139923,16.7917265 21.2498671,16.797332 L21.2498671,16.797332 L18.4480623,16.797332 L18.4480623,20.5633658 C18.442504,21.358454 17.8056023,22 17.0218729,22 L17.0218729,22 L6.97785788,22 C6.19412844,22 5.5572268,21.358454 5.55166844,20.5633658 L5.55166844,20.5633658 L5.55166844,16.7562853 L2.74986364,16.7562853 C1.78573853,16.7506798 1.00552521,15.9591389 1,14.9810159 L1,14.9810159 L1,10.9892252 C1.00557442,9.10600127 2.51195295,7.58234143 4.36823464,7.58234992 L4.36823464,7.58234992 L5.52132398,7.58234992 L5.52132398,7.58234992 L5.52132398,3.92919446 C5.52132398,2.86372978 6.372693,2 7.42290991,2 L7.42290991,2 Z M16.6779691,14.006157 L7.32176172,14.006157 L7.32176172,20.1631606 L16.6779691,20.1631606 L16.6779691,14.006157 Z M19.6314961,9.35761929 L4.36823464,9.35761929 C3.48954058,9.35761929 2.77565464,10.0772682 2.77009328,10.9687019 L2.77009328,10.9687019 L2.77009328,14.9604926 L5.55166844,14.9604926 L5.55166844,12.1693176 L18.4480623,12.1693176 L18.4480623,14.9604926 L21.2296375,14.9399692 L21.2296375,10.9687019 C21.2240761,10.0772682 20.5101902,9.35761929 19.6314961,9.35761929 L19.6314961,9.35761929 Z M19.5101183,10.1990764 C19.8843977,10.1990764 20.1878112,10.506895 20.1878112,10.8866085 C20.1878112,11.266322 19.8843977,11.5741406 19.5101183,11.5741406 C19.1358389,11.5741406 18.8324255,11.266322 18.8324255,10.8866085 C18.8324255,10.506895 19.1358389,10.1990764 19.5101183,10.1990764 Z M16.5565912,3.79579271 L7.45325436,3.79579271 C7.38063298,3.79579271 7.32176172,3.85551871 7.32176172,3.92919446 L7.32176172,3.92919446 L7.32176172,7.44894818 C7.32176172,7.52262393 7.38063298,7.58234992 7.45325436,7.58234992 L7.45325436,7.58234992 L16.5565912,7.58234992 C16.6292126,7.58234992 16.6880839,7.52262393 16.6880839,7.44894818 L16.6880839,7.44894818 L16.6880839,3.92919446 C16.6880839,3.85551871 16.6292126,3.79579271 16.5565912,3.79579271 L16.5565912,3.79579271 Z" id="path-1"></path>
    </defs>
    <g id="Symbols" stroke="none" stroke-width="1" fill="none" fill-rule="evenodd">
        <g id="Icon/print">
            <mask id="mask-2" fill="white">
                <use xlink:href="#path-1"></use>
            </mask>
            <use id="Combined-Shape" fill="#204293" fill-rule="nonzero" xlink:href="#path-1"></use>
            <g id="🎨icon-color/selected-race" mask="url(#mask-2)" fill="#FFF">
                <rect id="Rectangle" x="0" y="0" width="24" height="24"></rect>
            </g>
        </g>
    </g>
</svg>