<?xml version="1.0" encoding="UTF-8"?>
<svg width="20px" height="20px" viewBox="0 0 20 20" version="1.1" xmlns="http://www.w3.org/2000/svg" xmlns:xlink="http://www.w3.org/1999/xlink">
    <title>Football/Icon/20x20px/Refresh</title>
    <g id="Asset" stroke="none" stroke-width="1" fill="none" fill-rule="evenodd">
        <g id="Group">
            <rect id="Rectangle" x="0" y="0" width="20" height="20"></rect>
            <g id="refresh-svgrepo-com" transform="translate(10.133835, 9.892197) rotate(45.000000) translate(-10.133835, -9.892197) translate(3.111227, 3.063061)" fill="#FFFFFF">
                <path d="M0.0083244007,6.22489 C0.386838691,2.736748 3.29472138,-4.54747351e-13 6.85465167,-4.54747351e-13 C8.86735623,-4.54747351e-13 10.5599156,0.66404486 11.8162812,2.05491686 L11.8361861,1.25337086 C11.8361861,0.866774865 12.1967583,0.46378019 12.6097853,0.479771702 C13.0228123,0.495763214 13.299787,0.898766484 13.3322264,1.04650627 L13.3381094,4.2 C13.3381094,4.385654 13.2639323,4.563699 13.1319759,4.694977 C12.9999491,4.826248 12.8209811,4.9 12.6343419,4.9 L9.81927209,4.9 C9.43058132,4.9 9.00441453,4.47173844 9.00441453,4.08514244 C9.00441453,3.69853944 9.40247106,3.29839514 9.79116183,3.29839514 L10.5855808,3.28561733 C9.67901552,2.37905207 8.8020065,1.68060836 7.07580567,1.68060836 C4.26920919,1.68060836 1.93401023,3.84393036 1.62888481,6.65571836 C1.58717251,7.04008836 1.06472463,7.43394785 0.567813217,7.24584628 C0.0709018062,7.05774471 -0.0333878967,6.60926 0.0083244007,6.22489 Z M14.0368918,7.4333828 C13.6583775,10.9215248 10.7504948,13.6582728 7.19056451,13.6582728 C5.17785995,13.6582728 3.48530061,12.9942279 2.22893494,11.6033559 L2.20903007,12.4049019 C2.20903007,12.7914979 1.84845789,13.1944926 1.43543091,13.1785011 C1.02240392,13.1625096 0.745429185,12.7595063 0.712989787,12.6117665 L0.707106781,9.4582728 C0.707106781,9.2726188 0.781283871,9.0945738 0.91324027,8.9632958 C1.04526705,8.8320248 1.22423511,8.7582728 1.41087424,8.7582728 L4.22594408,8.7582728 C4.61463485,8.7582728 5.04080164,9.18653436 5.04080164,9.57313036 C5.04080164,9.95973336 4.64274511,10.3598777 4.25405434,10.3598777 L3.4596354,10.3726555 C4.36620066,11.2792207 5.24320968,11.9776644 6.9694105,11.9776644 C9.77600698,11.9776644 12.1112059,9.81434244 12.4163314,7.00255444 C12.4580437,6.61818444 12.9804915,6.22432495 13.477403,6.41242652 C13.9743144,6.60052809 14.0786041,7.0490128 14.0368918,7.4333828 Z" id="Shape"></path>
            </g>
        </g>
        <g id="Group-3" transform="translate(-18.000000, -640.000000)"></g>
    </g>
</svg>