<?xml version="1.0" encoding="UTF-8"?>
<svg width="21px" height="21px" viewBox="0 0 21 21" version="1.1" xmlns="http://www.w3.org/2000/svg" xmlns:xlink="http://www.w3.org/1999/xlink">
    <title>Icons/48px/Notifications/ic_notifications_white</title>
    <defs>
        <path d="M7.79166667,0 C12.0948853,0 15.5833333,3.48844799 15.5833333,7.79166667 C15.5833333,9.03023435 15.2943419,10.2013045 14.7801103,11.2411259 L19.4875982,16.1408715 C20.3923062,17.0455795 20.3929699,18.5147685 19.4899041,19.4178342 L19.4178342,19.4899041 C18.5219188,20.3858195 17.0765524,20.393892 16.1682843,19.514571 L10.8678955,14.9525298 C9.92417147,15.3584812 8.88417758,15.5833333 7.79166667,15.5833333 C3.48844799,15.5833333 0,12.0948853 0,7.79166667 C0,3.48844799 3.48844799,0 7.79166667,0 Z M12.537964,13.971376 L17.3869742,18.1446021 L17.4372339,18.1912358 C17.6280042,18.3820061 17.9328154,18.382198 18.1214718,18.1935417 L18.1935417,18.1214718 C18.3803839,17.9346295 18.3802446,17.6262428 18.1784723,17.424214 L13.7485557,12.8144353 C13.3877479,13.241908 12.9817629,13.6300094 12.537964,13.971376 Z M7.79166667,1.83333333 C4.50097003,1.83333333 1.83333333,4.50097003 1.83333333,7.79166667 C1.83333333,11.0823633 4.50097003,13.75 7.79166667,13.75 C8.87300181,13.75 9.88705869,13.4619475 10.7612901,12.9583898 L12.894242,10.8699776 C13.4374101,9.97155771 13.75,8.91811683 13.75,7.79166667 C13.75,4.50097003 11.0823633,1.83333333 7.79166667,1.83333333 Z M10.5060221,7.04215495 C10.8068034,7.04215495 11.0614421,7.09114583 11.2699382,7.1891276 C11.4784342,7.28710937 11.6368001,7.42781576 11.7450358,7.61124674 C11.8532715,7.79467773 11.9073893,8.0139974 11.9073893,8.26920573 L11.9073893,10.7916667 L11.3126628,10.7916667 L11.3126628,10.2482096 L11.2579753,10.2482096 C11.1805013,10.3780924 11.0865072,10.4886068 10.9759928,10.5797526 C10.8654785,10.6708984 10.7407227,10.7398275 10.6017253,10.7865397 C10.4627279,10.833252 10.3100586,10.8566081 10.1437174,10.8566081 C9.91129557,10.8566081 9.70222982,10.8121745 9.51652018,10.7233073 C9.33081055,10.6344401 9.18383789,10.5079753 9.07560221,10.3439128 C8.96736654,10.1798503 8.9132487,9.98388672 8.9132487,9.75602214 C8.9132487,9.53727214 8.96565755,9.34985352 9.07047526,9.19376628 C9.17529297,9.03767904 9.32796224,8.91520182 9.52848307,8.82633464 C9.72900391,8.73746745 9.97167969,8.68505859 10.2565104,8.66910807 L11.3116667,8.60566667 L11.3126628,8.26920573 C11.3126628,8.04134115 11.2437337,7.8675944 11.1058757,7.74796549 C10.9680176,7.62833659 10.7612305,7.56852214 10.4855143,7.56852214 C10.2644857,7.56852214 10.0833333,7.60782878 9.94205729,7.68644206 C9.80078125,7.76505534 9.70621745,7.87613932 9.65836589,8.01969401 L9.65494792,8.02994792 L9.06022135,8.02994792 L9.06363932,8.0094401 C9.09554036,7.81575521 9.17586263,7.64656576 9.30460612,7.50187174 C9.43334961,7.35717773 9.60026042,7.24438477 9.80533854,7.16349284 C10.0104167,7.08260091 10.2439779,7.04215495 10.5060221,7.04215495 Z M6.32926432,5.85953776 L8.1476237,10.7916667 L7.5016276,10.7916667 L7.00666667,9.38066667 L5.04266667,9.38066667 L4.5485026,10.7916667 L3.90250651,10.7916667 L5.72086589,5.85953776 L6.32926432,5.85953776 Z M11.3116667,9.08166667 L10.3282878,9.14420573 C10.0480143,9.16015625 9.84350586,9.21826172 9.71476237,9.31852214 C9.58601888,9.41878255 9.52164714,9.56233724 9.52164714,9.7491862 C9.52164714,9.93603516 9.59228516,10.0812988 9.7335612,10.1849772 C9.87483724,10.2886556 10.0525716,10.3404948 10.2667643,10.3404948 C10.4695638,10.3404948 10.6495768,10.3000488 10.8068034,10.2191569 C10.9640299,10.138265 11.0876465,10.0283203 11.177653,9.88932292 C11.2676595,9.75032552 11.3126628,9.59309896 11.3126628,9.41764323 L11.3116667,9.08166667 Z M5.99772135,6.65592448 L5.22566667,8.85766667 L6.82266667,8.85766667 L6.05166667,6.65666667 L5.99772135,6.65592448 Z" id="path-1"></path>
    </defs>
    <g id="2.0-Text-Search" stroke="none" stroke-width="1" fill="none" fill-rule="evenodd">
        <g id="m.2.4-text-search-desktop-4---history" transform="translate(-22.000000, -290.000000)">
            <g id="Football-Info-Bar" transform="translate(0.000000, 272.000000)">
                <g id="Buttons/Small-Use-Buttons/Icon/Lighter-Grey/Normal" transform="translate(12.000000, 8.000000)">
                    <g id="Icons/48px/Notifications/ic_notifications_white" transform="translate(10.000000, 10.000000)">
                        <g id="🎨icon-color/selected-race" transform="translate(0.000000, -0.000000)">
                            <mask id="mask-2" fill="white">
                                <use xlink:href="#path-1"></use>
                            </mask>
                            <use id="Combined-Shape" fill="#FFFFFF" fill-rule="nonzero" xlink:href="#path-1"></use>
                            <g mask="url(#mask-2)" fill="#FFFFFF" id="Rectangle">
                                <g transform="translate(-2.000000, -2.002278)">
                                    <rect x="0" y="0" width="24" height="24"></rect>
                                </g>
                            </g>
                        </g>
                    </g>
                </g>
            </g>
        </g>
    </g>
</svg>