<?xml version="1.0" encoding="UTF-8"?>
<svg width="24px" height="24px" viewBox="0 0 24 24" version="1.1" xmlns="http://www.w3.org/2000/svg" xmlns:xlink="http://www.w3.org/1999/xlink">
    <title>General/Icon/24x24px/Setting</title>
    <g id="Icon/24x24px/Setting" stroke="none" stroke-width="1" fill="none" fill-rule="evenodd">
        <rect id="Rectangle" transform="translate(12.000000, 12.000000) rotate(90.000000) translate(-12.000000, -12.000000) " x="0" y="0" width="24" height="24"></rect>
        <g id="Group" transform="translate(4.500000, 5.000000)" fill="#FFFFFF" fill-rule="nonzero">
            <path d="M7.5,3.625 C5.63600084,3.625 4.125,5.13600084 4.125,7 C4.125,8.86399916 5.63600084,10.375 7.5,10.375 C9.36399916,10.375 10.875,8.86399916 10.875,7 C10.875,5.13600084 9.36399916,3.625 7.5,3.625 Z M7.5,5.375 C8.39750084,5.375 9.125,6.10249916 9.125,7 C9.125,7.89750084 8.39750084,8.625 7.5,8.625 C6.60249916,8.625 5.875,7.89750084 5.875,7 C5.875,6.10249916 6.60249916,5.375 7.5,5.375 Z" id="Path" transform="translate(7.500000, 7.000000) rotate(90.000000) translate(-7.500000, -7.000000) "></path>
            <path d="M8.06573751,0.163788634 L7.9779418,0.31369119 C7.63435819,0.900131589 7.36187539,0.900131589 7.02395234,0.31694395 L6.93959943,0.172784662 C6.33427503,-0.833922348 5.03698122,-1.17616996 4.03142771,-0.584323171 L2.74732944,0.142511479 C1.69112038,0.739608701 1.29541005,2.0538337 1.82072524,3.12196719 L1.89809244,3.26600593 C2.21574376,3.80818596 2.12347845,4.0345514 1.54622689,4.06072919 L1.42428786,4.06332984 C0.157900751,4.06332984 -0.875,5.08887723 -0.875,6.34736546 L-0.875,7.65260488 C-0.875,8.85865604 0.0736189161,9.85080104 1.26726337,9.93138596 L1.42428786,9.93667016 C2.10935456,9.93667016 2.23692051,10.1556687 1.89870467,10.7329474 C1.26080106,11.8252096 1.64311087,13.2332505 2.74780075,13.8577552 L4.04418101,14.5916857 C5.03698122,15.17617 6.33427503,14.8339223 6.93426249,13.8362114 L7.0220582,13.6863088 C7.36564181,13.0998684 7.63812461,13.0998684 7.97604766,13.6830561 L8.06040057,13.8272153 C8.66572497,14.8339223 9.96301878,15.17617 10.9685723,14.5843232 L12.2526706,13.8574885 C13.3568696,13.2332615 13.7376409,11.8346167 13.1040165,10.7376251 C12.7843881,10.192041 12.8765298,9.96546278 13.4537736,9.9392717 L13.5757121,9.93667016 C14.8420993,9.93667016 15.875,8.91109304 15.875,7.65260488 L15.875,6.34736546 C15.875,5.13772973 14.9229544,4.14889782 13.7323083,4.06859522 L13.5757121,4.06332984 C12.8906454,4.06332984 12.7630795,3.8443313 13.1012953,3.26705257 C13.7391989,2.17479036 13.3568891,0.766749484 12.2521992,0.142244842 L10.9685723,-0.584323171 C9.96301878,-1.17616996 8.66572497,-0.833922348 8.06573751,0.163788634 Z M10.080903,0.923835705 L11.3905078,1.6653954 C11.6468153,1.81029162 11.7352561,2.13601768 11.5907461,2.38345789 C10.5661483,4.13227587 11.5453569,5.81332984 13.5757121,5.81332984 C13.8774673,5.81332984 14.125,6.05732258 14.125,6.34736546 L14.125,7.65260488 C14.125,7.94179627 13.8783775,8.18667016 13.5757121,8.18667016 C11.5453569,8.18667016 10.5661483,9.86772413 11.5913583,11.6175888 C11.7358593,11.8677962 11.6484766,12.1887692 11.3909792,12.334338 L10.0936563,13.0688018 C9.90900896,13.1773373 9.67434772,13.1154298 9.5654469,12.9343401 L9.48832506,12.8024296 C8.47881692,11.0602042 6.53240917,11.0602042 5.51189807,12.8020486 L5.42921617,12.9433362 C5.32565228,13.1154298 5.09099104,13.1773373 4.91909702,13.0761643 L3.60949215,12.3346046 C3.35318474,12.1897084 3.26474394,11.8639823 3.40925389,11.6165421 C4.4338517,9.86772413 3.4546431,8.18667016 1.42428786,8.18667016 C1.12162253,8.18667016 0.875,7.94179627 0.875,7.65260488 L0.875,6.34736546 C0.875,6.05818545 1.12161127,5.81332984 1.42428786,5.81332984 C3.4546431,5.81332984 4.4338517,4.13227587 3.40864166,2.38241125 C3.26474394,2.13601768 3.35318474,1.81029162 3.60902084,1.66566204 L4.90634373,0.93119823 C5.09099104,0.822662652 5.32565228,0.884570176 5.4345531,1.06565987 L5.51167494,1.19757037 C6.52118308,2.93979576 8.46759083,2.93979576 9.48810193,1.19795144 L9.57078383,1.05666384 C9.67434772,0.884570176 9.90900896,0.822662652 10.080903,0.923835705 Z" id="Path"></path>
        </g>
    </g>
</svg>